<svg xmlns="http://www.w3.org/2000/svg"  viewBox="0 0 128 128" width="512px" height="512px"><path d="M 94.699219 1 C 88.699219 1 83.499609 5.1003906 82.099609 10.900391 C 80.999609 15.200391 79.999219 19.699609 79.199219 24.099609 C 78.799219 25.999609 79.400781 28.000391 80.800781 29.400391 C 81.900781 30.500391 83.499609 31.199219 85.099609 31.199219 C 85.499609 31.199219 85.799219 31.199609 86.199219 31.099609 C 86.899219 30.999609 87.599609 30.799219 88.099609 30.699219 C 102.29961 27.699219 113.40039 26.599219 124.90039 27.199219 C 126.50039 27.299219 127.99961 26.000391 128.09961 24.400391 C 128.19961 22.700391 126.90078 21.299219 125.30078 21.199219 C 113.20078 20.599219 101.70039 21.700781 86.900391 24.800781 C 86.500391 24.900781 85.799219 24.999609 85.199219 25.099609 C 85.999219 20.799609 87 16.499219 88 12.199219 C 88.7 9.1992187 91.499219 7 94.699219 7 L 125 7 C 126.7 7 128 5.7 128 4 C 128 2.3 126.7 1 125 1 L 94.699219 1 z M 79.277344 37.988281 C 77.867773 38.105859 76.774609 39.199609 76.599609 40.599609 C 74.299609 59.799609 74 79.600391 74 99.900391 L 74 100 L 74 124 C 74 125.7 75.3 127 77 127 L 91 127 C 92.7 127 94 125.7 94 124 L 94 113 L 125 113 C 126.7 113 128 111.7 128 110 C 128 108.3 126.7 107 125 107 L 87 107 C 85.1 107 83.4 106.30039 82 104.90039 C 80.7 103.60039 79.9 101.80039 80 99.900391 C 80 79.800391 80.3 60.200781 82.5 41.300781 C 82.7 39.700781 81.500391 38.2 79.900391 38 C 79.687891 37.975 79.478711 37.971484 79.277344 37.988281 z M 31 52 C 23.5 52 17.199219 57.800781 16.699219 65.300781 L 16.300781 71 L 22.300781 71 L 22.699219 65.699219 C 22.999219 61.399219 26.7 58 31 58 C 35.3 58 39.000781 61.399219 39.300781 65.699219 L 39.599609 71 L 22.300781 71 L 22 76.199219 C 21.9 77.799219 20.6 79 19 79 C 17.3 79 15.9 77.500781 16 75.800781 L 16.300781 71 L 10.800781 71 C 7.7007813 71 5.0007813 73.499609 4.8007812 76.599609 L 1.6992188 120.59961 C 1.5992187 122.29961 2.2007812 123.89961 3.3007812 125.09961 C 4.5007812 126.29961 6.0992187 127 7.6992188 127 L 54.300781 127 C 56.000781 127 57.599219 126.29961 58.699219 125.09961 C 59.799219 123.89961 60.400781 122.19961 60.300781 120.59961 L 57.199219 76.599609 C 56.999219 73.499609 54.299219 71 51.199219 71 L 45.699219 71 L 46 75.800781 C 46.1 77.500781 44.7 79 43 79 C 41.4 79 40.1 77.799219 40 76.199219 L 39.699219 71 L 45.599609 71 L 45.199219 65.300781 C 44.799219 57.800781 38.5 52 31 52 z M 67 52 C 65.3 52 64 53.3 64 55 L 64 69 C 64 70.7 65.3 72 67 72 C 68.7 72 70 70.7 70 69 L 70 55 C 70 53.3 68.7 52 67 52 z M 90 66 C 88.3 66 87 67.3 87 69 C 87 70.7 88.3 72 90 72 L 125 72 C 126.7 72 128 70.7 128 69 C 128 67.3 126.7 66 125 66 L 90 66 z M 89.240234 86.011719 C 88.068359 85.950781 86.925391 86.549609 86.400391 87.599609 C 85.700391 89.099609 86.299219 90.899609 87.699219 91.599609 L 97.699219 96.699219 C 98.099219 96.899219 98.6 97 99 97 C 100.1 97 101.19922 96.400781 101.69922 95.300781 C 102.39922 93.800781 101.80039 92.000781 100.40039 91.300781 L 90.400391 86.300781 C 90.025391 86.125781 89.630859 86.032031 89.240234 86.011719 z M 112.5 91 C 110.8 91 109.5 92.3 109.5 94 C 109.5 95.7 110.8 97 112.5 97 L 125 97 C 126.7 97 128 95.7 128 94 C 128 92.3 126.7 91 125 91 L 112.5 91 z"/></svg>