<svg xmlns="http://www.w3.org/2000/svg"  viewBox="0 0 30 30" width="480px" height="480px"><path d="M 7.0019531 1.9921875 C 6.7319531 1.9921875 6.4626562 2.0523438 6.2226562 2.1523438 C 6.0726562 2.2223437 5.9229687 2.3023438 5.7929688 2.4023438 C 5.7229687 2.4523437 5.6517969 2.5120312 5.5917969 2.5820312 C 5.5017969 2.6720312 5.4215625 2.7730469 5.3515625 2.8730469 C 5.1315625 3.1930469 5.0019531 3.5821875 5.0019531 3.9921875 L 5.0019531 26.003906 C 5.0019531 27.103906 5.8919531 28.003906 7.0019531 28.003906 L 9.9511719 28.003906 C 9.3211719 27.233906 9.0117187 26.112187 9.0117188 24.992188 L 9.0117188 22.992188 L 10.611328 19.792969 C 10.241328 19.292969 10.011719 18.672187 10.011719 17.992188 C 10.011719 16.332187 11.351719 14.992188 13.011719 14.992188 L 17.371094 14.992188 C 18.081094 14.372188 19.001719 13.992188 20.011719 13.992188 C 21.021719 13.992188 21.942344 14.372188 22.652344 14.992188 L 25.001953 14.992188 L 25.001953 3.9921875 C 25.001953 2.8921875 24.111953 1.9921875 23.001953 1.9921875 L 7.0019531 1.9921875 z M 20.011719 15.992188 C 19.271719 15.992188 18.63125 16.392187 18.28125 16.992188 L 16.142578 16.992188 L 15.832031 16.992188 L 15.832031 17.003906 L 13.001953 17.003906 C 12.451953 17.003906 12.001953 17.443906 12.001953 18.003906 C 12.001953 18.523906 12.402344 18.942187 12.902344 18.992188 C 12.932344 19.002188 12.971953 19.003906 13.001953 19.003906 L 11.001953 23.003906 L 12.251953 23.003906 L 13.261719 20.972656 L 14.001953 19.503906 L 14.542969 20.572266 L 15.751953 23.003906 L 17.001953 23.003906 L 15.402344 19.802734 L 15.001953 19.003906 L 15.832031 19.003906 L 16.142578 19.003906 L 18.292969 19.003906 C 18.632969 19.593906 19.281719 19.992187 20.011719 19.992188 C 20.741719 19.992188 21.392422 19.593906 21.732422 19.003906 L 23.882812 19.003906 L 25.001953 19.003906 L 23.001953 23.003906 L 24.251953 23.003906 L 25.001953 21.503906 L 26.001953 19.503906 L 26.011719 19.523438 L 27.751953 23.003906 L 29.001953 23.003906 L 27.001953 19.003906 C 27.551953 19.003906 28.001953 18.553906 28.001953 18.003906 C 28.001953 17.443906 27.551953 17.003906 27.001953 17.003906 L 25.001953 17.003906 L 25.001953 16.992188 L 23.882812 16.992188 L 21.742188 16.992188 C 21.392187 16.392187 20.751719 15.992188 20.011719 15.992188 z M 11.001953 25.003906 L 11.001953 25.873047 C 11.441953 27.103047 12.611953 28.003906 14.001953 28.003906 C 15.391953 28.003906 16.561953 27.103047 17.001953 25.873047 L 17.001953 25.003906 L 11.001953 25.003906 z M 23.001953 25.003906 L 23.001953 25.873047 C 23.241953 26.553047 23.7125 27.133672 24.3125 27.513672 C 24.8125 27.823672 25.381953 28.003906 26.001953 28.003906 L 26.011719 28.003906 C 27.401719 28.003906 28.561953 27.103047 29.001953 25.873047 L 29.001953 25.003906 L 26.011719 25.003906 L 25.001953 25.003906 L 23.001953 25.003906 z"/></svg>