<svg xmlns="http://www.w3.org/2000/svg" xmlns:xlink="http://www.w3.org/1999/xlink" viewBox="0,0,256,256" width="512px" height="512px" fill-rule="nonzero"><defs><linearGradient x1="-1.11" y1="25" x2="30.35" y2="25" gradientUnits="userSpaceOnUse" id="color-1"><stop offset="0" stop-color="#000000"></stop><stop offset="1" stop-color="#461d93"></stop></linearGradient><linearGradient x1="-22.64" y1="326" x2="732.4" y2="326" gradientUnits="userSpaceOnUse" id="color-2"><stop offset="0" stop-color="#000000"></stop><stop offset="1" stop-color="#461d93"></stop></linearGradient><linearGradient x1="-14.1036" y1="85.00023" x2="413.62517" y2="85.00023" gradientUnits="userSpaceOnUse" id="color-3"><stop offset="0" stop-color="#000000"></stop><stop offset="1" stop-color="#461d93"></stop></linearGradient><linearGradient x1="-1.11" y1="25" x2="30.35" y2="25" gradientUnits="userSpaceOnUse" id="color-4"><stop offset="0" stop-color="#000000"></stop><stop offset="1" stop-color="#461d93"></stop></linearGradient><linearGradient x1="21.17" y1="71" x2="115.55" y2="71" gradientUnits="userSpaceOnUse" id="color-5"><stop offset="0" stop-color="#000000"></stop><stop offset="1" stop-color="#461d93"></stop></linearGradient></defs><g fill="none" fill-rule="nonzero" stroke="none" stroke-width="1" stroke-linecap="butt" stroke-linejoin="miter" stroke-miterlimit="10" stroke-dasharray="" stroke-dashoffset="0" font-family="none" font-weight="none" font-size="none" text-anchor="none" style="mix-blend-mode: normal"><g transform="scale(8,8)"><rect x="16.34" y="24" width="2.66" height="2" fill="url(#color-1)"></rect><path d="M6,20.5c0,-1.933 1.567,-3.5 3.5,-3.5h13c3.03757,0 5.5,-2.46243 5.5,-5.5c0,-3.03757 -2.46243,-5.5 -5.5,-5.5h-6.21v2h6.21c1.933,0 3.5,1.567 3.5,3.5c0,1.933 -1.567,3.5 -3.5,3.5h-13c-3.03757,0 -5.5,2.46243 -5.5,5.5c0,3.03757 2.46243,5.5 5.5,5.5h4.65v-2h-4.65c-1.933,0 -3.5,-1.567 -3.5,-3.5z" fill="url(#color-2)"></path><path d="M13.8,12c0.57166,-0.62654 0.85141,-1.46577 0.77,-2.31l-0.57,-5.99c-0.15463,-1.5387 -1.45357,-2.70775 -3,-2.7h-6.4c-1.54643,-0.00775 -2.84537,1.1613 -3,2.7l-0.6,6c-0.07583,0.84234 0.20742,1.67755 0.78,2.3c0.56538,0.63214 1.37192,0.99545 2.22,1h7.58c0.84808,-0.00455 1.65462,-0.36786 2.22,-1zM6.8,3h2v2c0,0.55228 -0.44772,1 -1,1c-0.55228,0 -1,-0.44772 -1,-1zM3.26,10.67c-0.19176,-0.20829 -0.28624,-0.4881 -0.26,-0.77l0.6,-6c0.05154,-0.5129 0.48452,-0.90258 1,-0.9h0.19v2c0,1.65685 1.34315,3 3,3c1.65685,0 3,-1.34315 3,-3v-2h0.21c0.51548,-0.00258 0.94846,0.3871 1,0.9l0.6,6c0.02835,0.28207 -0.06435,0.56292 -0.25505,0.77269c-0.1907,0.20977 -0.46147,0.32874 -0.74495,0.32731h-7.6c-0.28218,-0.00067 -0.55094,-0.12052 -0.74,-0.33z" fill="url(#color-3)"></path><path d="M26,19c-2.80735,0.04929 -5.04456,2.36257 -5,5.17c0,3.7 4.27,6.55 4.45,6.67c0.33373,0.21978 0.76627,0.21978 1.1,0c0.18,-0.12 4.45,-3 4.45,-6.67c0.04456,-2.80743 -2.19265,-5.12071 -5,-5.17zM26,28.76c-1.16,-0.91 -3,-2.75 -3,-4.59c0,-1.65685 1.34315,-3 3,-3c1.65685,0 3,1.34315 3,3c0,1.83 -1.84,3.68 -3,4.59z" fill="url(#color-4)"></path><rect x="24.5" y="23" width="3" height="2" fill="url(#color-5)"></rect></g></g></svg>