<svg xmlns="http://www.w3.org/2000/svg"  viewBox="0 0 50 50" width="500px" height="500px"><path d="M 8.21875 0 C 6.449219 0 5 1.449219 5 3.21875 L 5 12.03125 L 7 12.03125 L 7 3.21875 C 7 2.527344 7.527344 2 8.21875 2 L 41.78125 2 C 42.46875 2 43 2.527344 43 3.21875 L 43 12.03125 L 45 12.03125 L 45 3.21875 C 45 1.449219 43.550781 0 41.78125 0 Z M 24 9.21875 C 19.90625 9.21875 16.820313 9.554688 14.65625 10.15625 C 13.574219 10.457031 12.726563 10.835938 12.0625 11.3125 C 11.417969 11.777344 10.953125 12.414063 10.875 13.1875 L 10.84375 13.1875 L 10.84375 13.25 L 9.125 26 L 8.21875 26 C 7.796875 26 7.394531 26.03125 7 26.125 L 7 23.96875 L 5 23.96875 L 5 27.125 C 3.792969 28.070313 3 29.523438 3 31.1875 L 3 40 C 3 40.03125 3 40.0625 3 40.09375 L 3 44.8125 C 2.996094 44.855469 2.996094 44.894531 3 44.9375 L 3 47 C 3 48.644531 4.355469 50 6 50 L 10 50 C 11.644531 50 13 48.644531 13 47 L 13 45 L 29.78125 45 C 31.746094 48.011719 35.144531 50 39 50 C 39.230469 50 39.460938 49.984375 39.6875 49.96875 C 39.789063 49.996094 39.894531 50.007813 40 50 L 44 50 C 45.644531 50 47 48.644531 47 47 C 47.007813 46.863281 46.984375 46.722656 46.9375 46.59375 C 48.828125 44.617188 50 41.941406 50 39 C 50 36.089844 48.855469 33.4375 47 31.46875 L 47 31.1875 C 47 29.523438 46.207031 28.070313 45 27.125 L 45 23.96875 L 43 23.96875 L 43 26.125 C 42.605469 26.03125 42.203125 26 41.78125 26 L 40.875 26 L 39.15625 13.25 L 39.15625 13.1875 L 39.125 13.1875 C 39.027344 12.238281 38.3125 11.679688 37.5 11.25 C 36.667969 10.808594 35.59375 10.449219 34.28125 10.15625 C 31.65625 9.574219 28.09375 9.21875 24 9.21875 Z M 24 11.21875 C 27.980469 11.21875 31.433594 11.589844 33.84375 12.125 C 35.046875 12.394531 35.992188 12.699219 36.5625 13 C 36.992188 13.226563 37.125 13.414063 37.15625 13.4375 C 37.167969 13.449219 37.175781 13.457031 37.1875 13.46875 L 38.21875 21.125 C 36.96875 21.347656 32.75 22 25 22 C 17.25 22 13.03125 21.347656 11.78125 21.125 L 12.8125 13.46875 C 12.824219 13.449219 12.835938 13.425781 12.84375 13.40625 C 12.847656 13.347656 12.851563 13.203125 13.21875 12.9375 C 13.585938 12.671875 14.25 12.351563 15.1875 12.09375 C 17.058594 11.574219 20.019531 11.21875 24 11.21875 Z M 4.25 12.90625 C 2.980469 12.90625 1.90625 13.980469 1.90625 15.25 L 1.90625 20.75 C 1.90625 22.023438 2.980469 23.09375 4.25 23.09375 L 5.75 23.09375 C 7.023438 23.09375 8.09375 22.019531 8.09375 20.75 L 8.09375 15.25 C 8.09375 13.976563 7.019531 12.90625 5.75 12.90625 Z M 44.25 12.90625 C 42.980469 12.90625 41.90625 13.976563 41.90625 15.25 L 41.90625 20.75 C 41.90625 22.019531 42.976563 23.09375 44.25 23.09375 L 45.75 23.09375 C 47.019531 23.09375 48.09375 22.023438 48.09375 20.75 L 48.09375 15.25 C 48.09375 13.980469 47.023438 12.90625 45.75 12.90625 Z M 4.25 15.09375 L 5.75 15.09375 C 5.851563 15.09375 5.90625 15.148438 5.90625 15.25 L 5.90625 20.75 C 5.90625 20.851563 5.851563 20.90625 5.75 20.90625 L 4.25 20.90625 C 4.148438 20.90625 4.09375 20.851563 4.09375 20.75 L 4.09375 15.25 C 4.09375 15.148438 4.148438 15.09375 4.25 15.09375 Z M 44.25 15.09375 L 45.75 15.09375 C 45.851563 15.09375 45.90625 15.148438 45.90625 15.25 L 45.90625 20.75 C 45.90625 20.851563 45.851563 20.90625 45.75 20.90625 L 44.25 20.90625 C 44.148438 20.90625 44.09375 20.851563 44.09375 20.75 L 44.09375 15.25 C 44.09375 15.148438 44.148438 15.09375 44.25 15.09375 Z M 11.53125 23.09375 C 13.09375 23.363281 17.515625 24 25 24 C 32.484375 24 36.90625 23.363281 38.46875 23.09375 L 39 27.125 C 39.0625 27.628906 39.492188 28.003906 40 28 L 41.78125 28 C 42.960938 28 43.972656 28.585938 44.53125 29.5 C 42.90625 28.554688 41.011719 28 39 28 C 36.769531 28 34.699219 28.667969 32.96875 29.8125 L 32.96875 28.625 C 32.96875 27.207031 31.792969 26.03125 30.375 26.03125 L 19.625 26.03125 C 18.207031 26.03125 17.03125 27.207031 17.03125 28.625 L 17.03125 33.375 C 17.03125 34.792969 18.207031 35.96875 19.625 35.96875 L 28.4375 35.96875 C 28.25 36.625 28.125 37.300781 28.0625 38 L 5 38 L 5 31.1875 C 5 29.355469 6.417969 28 8.21875 28 L 10 28 C 10.507813 28.003906 10.9375 27.628906 11 27.125 Z M 19.625 27.96875 L 30.375 27.96875 C 30.746094 27.96875 31.03125 28.253906 31.03125 28.625 L 31.03125 31.4375 C 30.304688 32.207031 29.703125 33.078125 29.21875 34.03125 L 19.625 34.03125 C 19.253906 34.03125 18.96875 33.746094 18.96875 33.375 L 18.96875 28.625 C 18.96875 28.253906 19.253906 27.96875 19.625 27.96875 Z M 8.6875 30 C 7.761719 30 7 30.761719 7 31.6875 L 7 34.3125 C 7 35.238281 7.761719 36 8.6875 36 L 13.3125 36 C 14.238281 36 15 35.238281 15 34.3125 L 15 31.6875 C 15 30.761719 14.238281 30 13.3125 30 Z M 39 30 C 41.410156 30 43.605469 30.933594 45.21875 32.46875 C 45.238281 32.492188 45.257813 32.511719 45.28125 32.53125 C 46.964844 34.164063 48 36.460938 48 39 C 48 43.980469 43.980469 48 39 48 C 34.019531 48 30 43.980469 30 39 C 30 34.019531 34.019531 30 39 30 Z M 9 32 L 13 32 L 13 34 L 9 34 Z M 44 35.34375 L 38.3125 41.03125 L 34.75 37.46875 L 33.3125 38.875 L 37.625 43.15625 L 38.3125 43.875 L 39.03125 43.15625 L 45.4375 36.78125 Z M 5 40 L 28.0625 40 C 28.15625 41.050781 28.410156 42.054688 28.78125 43 L 5 43 L 5 40.15625 C 5.003906 40.105469 5.003906 40.050781 5 40 Z M 5 45 L 11 45 L 11 47 C 11 47.5625 10.5625 48 10 48 L 6 48 C 5.4375 48 5 47.5625 5 47 Z"/></svg>