<svg xmlns="http://www.w3.org/2000/svg"  viewBox="0 0 64 64" width="512px" height="512px"><path d="M 30.599609 4 L 30.220703 7.0195312 A 1 1 0 0 1 29.550781 7.8417969 A 7.4 7.4 0 0 0 28.671875 8.2070312 A 1 1 0 0 1 27.617188 8.0996094 L 25.216797 6.2304688 L 23.228516 8.2148438 L 25.099609 10.613281 A 1 1 0 0 1 25.207031 11.669922 A 7.255 7.255 0 0 0 24.841797 12.546875 A 1 1 0 0 1 24.019531 13.216797 L 21 13.599609 L 21 16.400391 L 24.019531 16.777344 A 1 1 0 0 1 24.841797 17.449219 A 7.255 7.255 0 0 0 25.207031 18.326172 A 1 1 0 0 1 25.099609 19.382812 L 23.228516 21.78125 L 25.214844 23.765625 L 27.613281 21.896484 A 1 1 0 0 1 28.669922 21.787109 A 7.4 7.4 0 0 0 29.548828 22.154297 A 1 1 0 0 1 30.216797 22.976562 L 30.599609 26 L 33.400391 26 L 33.777344 22.980469 A 1 1 0 0 1 34.445312 22.158203 A 7.4 7.4 0 0 0 35.324219 21.792969 A 1 1 0 0 1 36.380859 21.900391 L 38.779297 23.769531 L 40.765625 21.785156 L 38.894531 19.386719 A 1 1 0 0 1 38.785156 18.330078 A 7.255 7.255 0 0 0 39.152344 17.453125 A 1 1 0 0 1 39.974609 16.783203 L 43 16.400391 L 43 13.599609 L 39.980469 13.222656 A 1 1 0 0 1 39.158203 12.554688 A 7.255 7.255 0 0 0 38.792969 11.677734 A 1 1 0 0 1 38.900391 10.621094 L 40.771484 8.2207031 L 38.785156 6.2304688 L 36.382812 8.0996094 A 1 1 0 0 1 35.328125 8.2089844 A 7.4 7.4 0 0 0 34.449219 7.84375 A 1 1 0 0 1 33.779297 7.0214844 L 33.400391 4 L 30.599609 4 z M 48.019531 7.2226562 L 48 13.074219 C 48.279 13.158219 48.580391 13.245891 48.900391 13.337891 C 53.491391 14.679891 57.700375 16.092422 58.734375 18.607422 A 7.9 7.9 0 0 1 59.302734 21.808594 C 60.480734 19.043594 61.148609 15.789563 59.849609 12.976562 C 58.324609 9.6705625 51.464531 7.9546562 48.019531 7.2226562 z M 16 7.2265625 C 12.473 7.9795625 5.6878281 9.7004688 4.1738281 12.980469 C 2.8738281 15.794469 3.53975 19.0485 4.71875 21.8125 A 7.9 7.9 0 0 1 5.2871094 18.607422 C 6.3241094 16.092422 10.530094 14.679891 15.121094 13.337891 C 15.439094 13.245891 15.740484 13.158219 16.021484 13.074219 L 16 7.2265625 z M 32 9 A 6 6 0 1 1 26 15 A 6.006 6.006 0 0 1 32 9 z M 32 11 A 4 4 0 0 0 32 19 A 4 4 0 0 0 32 11 z M 15.5 30 A 4.5 5 0 0 0 15.5 40 A 4.5 5 0 0 0 15.5 30 z M 49 30 A 4.176 4.176 0 0 0 46.259766 31.039062 A 5.327 5.327 0 0 0 46.429688 39.099609 A 4.126 4.126 0 0 0 49 40 A 4.774 4.774 0 0 0 53.5 35 A 4.774 4.774 0 0 0 49 30 z M 32 34 A 4.628 4.628 0 0 0 27.580078 38.119141 A 4.433 4.433 0 0 0 27.5 39 A 4.774 4.774 0 0 0 32 44 A 4.308 4.308 0 0 0 35.470703 42.169922 A 5.251 5.251 0 0 0 36.5 39 A 4.719 4.719 0 0 0 36.429688 38.150391 A 4.647 4.647 0 0 0 32 34 z M 15.050781 42 C 9.2307812 42 4.4503125 48.19 4.0703125 56 L 19.660156 56 A 18.019 18.019 0 0 1 23.779297 47.890625 C 21.699297 44.190625 18.470781 42 15.050781 42 z M 48.949219 42 C 45.529219 42 42.300703 44.190625 40.220703 47.890625 A 18.019 18.019 0 0 1 44.339844 56 L 59.929688 56 C 59.549687 48.19 54.769219 42 48.949219 42 z M 32 46 A 9 9 0 0 0 25.769531 48.679688 C 25.749531 48.709688 25.719219 48.739531 25.699219 48.769531 A 15.923 15.923 0 0 0 21.439453 57.189453 A 21.366 21.366 0 0 0 21.109375 60 L 42.890625 60 A 21.366 21.366 0 0 0 42.560547 57.189453 A 15.923 15.923 0 0 0 38.300781 48.769531 A 0.55 0.55 0 0 1 38.230469 48.679688 A 9 9 0 0 0 32 46 z"/></svg>