<svg xmlns="http://www.w3.org/2000/svg"  viewBox="0 0 24 24" width="480px" height="480px"><path d="M 15.28125 4 C 15.015625 4.019531 14.753906 4.125 14.46875 4.28125 C 13.214844 4.972656 10.210938 6.726563 8.78125 7.625 C 8.296875 7.910156 7.875 8.355469 7.875 8.96875 C 7.875 9.757813 8.488281 10.40625 9.25 10.40625 C 9.542969 10.40625 9.773438 10.257813 10.03125 10.125 C 10.660156 9.808594 12.175781 9.023438 13.1875 8.46875 C 14.292969 7.863281 14.96875 8.5625 14.96875 8.5625 C 14.96875 8.5625 18.941406 12.667969 20.0625 13.78125 C 20.789063 14.507813 21.804688 14.167969 22.125 14.125 C 22.445313 14.085938 24 13.78125 24 13.78125 L 24 6.21875 C 24 6.21875 21.128906 6.960938 20.21875 7.09375 C 19.785156 7.15625 19.25 6.90625 19.25 6.90625 C 19.25 6.90625 18.101563 5.875 16.8125 4.75 C 16.160156 4.179688 15.722656 3.96875 15.28125 4 Z M 9.03125 4.09375 C 7.5625 4.09375 4.5 6.1875 4.5 6.1875 C 4.5 6.1875 3.613281 6.769531 2.375 6.25 L 0 5.40625 L 0 14 C 0 14 0.667969 14.210938 1.28125 14.46875 C 1.421875 14.058594 1.65625 13.6875 1.96875 13.375 C 2.988281 12.367188 4.667969 12.355469 5.59375 13.34375 C 5.871094 13.644531 6.085938 14.011719 6.1875 14.40625 C 6.5625 14.527344 6.882813 14.742188 7.15625 15.03125 C 7.433594 15.328125 7.617188 15.699219 7.71875 16.09375 C 8.09375 16.214844 8.445313 16.425781 8.71875 16.71875 C 9.027344 17.046875 9.214844 17.445313 9.3125 17.875 C 9.703125 17.992188 10.058594 18.195313 10.34375 18.5 C 10.898438 19.09375 11.089844 19.910156 10.96875 20.6875 C 10.96875 20.6875 11.316406 21.089844 11.53125 21.3125 C 11.941406 21.738281 12.621094 21.738281 13.03125 21.3125 C 13.441406 20.886719 13.441406 20.175781 13.03125 19.75 C 13.015625 19.734375 11.519531 18.171875 11.65625 18.03125 C 11.792969 17.890625 13.652344 19.902344 13.6875 19.9375 C 14.097656 20.363281 14.777344 20.363281 15.1875 19.9375 C 15.597656 19.511719 15.597656 18.832031 15.1875 18.40625 C 15.167969 18.386719 13.453125 16.519531 13.5625 16.40625 C 13.683594 16.277344 15.777344 18.5 15.78125 18.5 C 16.195313 18.886719 16.820313 18.882813 17.21875 18.46875 C 17.605469 18.070313 17.621094 17.429688 17.28125 17 C 17.273438 16.976563 15.546875 15.050781 15.65625 14.9375 C 15.765625 14.824219 17.527344 16.652344 17.53125 16.65625 C 17.941406 17.082031 18.621094 17.082031 19.03125 16.65625 C 19.441406 16.230469 19.441406 15.519531 19.03125 15.09375 C 19.023438 15.085938 16.722656 12.71875 14.40625 10.3125 C 14.40625 10.3125 13.699219 9.582031 12.78125 10 C 12.136719 10.292969 11.3125 10.695313 10.6875 11 C 10 11.371094 9.40625 11.5 9.28125 11.5 C 7.957031 11.5 6.875 10.375 6.875 9 C 6.875 8.109375 7.351563 7.347656 8.03125 6.90625 C 8.988281 6.21875 11.1875 5 11.1875 5 C 11.1875 5 10.5 4.09375 9.03125 4.09375 Z M 3.8125 13.75 C 3.445313 13.761719 3.046875 13.925781 2.75 14.21875 C 2.15625 14.808594 1.785156 15.875 2.3125 16.5 C 2.839844 17.125 3.441406 16.734375 3.90625 16.625 C 3.777344 17.101563 3.402344 17.566406 3.875 18.1875 C 4.347656 18.8125 5.003906 18.421875 5.46875 18.3125 C 5.339844 18.789063 4.980469 19.265625 5.4375 19.84375 C 5.898438 20.421875 6.628906 20.128906 7.125 19.96875 C 6.933594 20.480469 6.535156 21.035156 7.0625 21.65625 C 7.589844 22.277344 8.808594 21.996094 9.40625 21.40625 C 10 20.816406 10.054688 19.871094 9.53125 19.3125 C 9.171875 18.929688 8.621094 18.839844 8.125 19 C 8.316406 18.484375 8.277344 17.925781 7.90625 17.53125 C 7.574219 17.175781 7.089844 17.078125 6.625 17.1875 C 6.753906 16.710938 6.679688 16.203125 6.34375 15.84375 C 6.011719 15.488281 5.527344 15.390625 5.0625 15.5 C 5.191406 15.023438 5.117188 14.515625 4.78125 14.15625 C 4.519531 13.878906 4.179688 13.738281 3.8125 13.75 Z"/></svg>