<?xml version="1.0"?><svg xmlns="http://www.w3.org/2000/svg"  viewBox="0 0 128 128" width="512px" height="512px">    <path d="M 64 1 C 62.3 1 61 2.3 61 4 L 61 28 L 51 28 C 46.6 28 43 31.6 43 36 L 43 51 L 37 51 C 32.6 51 29 54.6 29 59 L 29 79 C 29 80.7 30.3 82 32 82 C 33.7 82 35 80.7 35 79 L 35 59 C 35 57.9 35.9 57 37 57 L 111 57 C 112.1 57 113 57.9 113 59 L 113 86.400391 L 75.199219 71.199219 L 75.099609 71.199219 C 74.999609 71.199219 74.900781 71.099609 74.800781 71.099609 C 74.700781 71.099609 74.6 71 74.5 71 C 74.1 70.9 73.700781 70.9 73.300781 71 C 73.200781 71 73.1 71.099609 73 71.099609 C 72.9 71.099609 72.799219 71.099219 72.699219 71.199219 L 72.599609 71.199219 L 22.699219 91.199219 C 21.199219 91.799219 20.5 93.400391 21 94.900391 L 26.300781 110.90039 C 26.800781 112.50039 28.499609 113.30078 30.099609 112.80078 C 31.699609 112.30078 32.5 110.6 32 109 L 27.5 95.599609 L 71 78.400391 L 71 120.59961 C 69.2 120.09961 67.499609 119.10078 66.099609 117.80078 C 64.999609 116.70078 63.000391 116.70078 61.900391 117.80078 C 59.800391 119.90078 57 121.09961 54 121.09961 C 51 121.09961 48.199609 119.90078 46.099609 117.80078 C 44.999609 116.70078 43.000391 116.70078 41.900391 117.80078 C 39.800391 119.90078 37 121.09961 34 121.09961 C 31 121.09961 28.199609 119.90078 26.099609 117.80078 C 24.899609 116.60078 23.000391 116.60078 21.900391 117.80078 C 19.800391 119.90078 17 121.09961 14 121.09961 C 12.3 121.09961 11 122.39961 11 124.09961 C 11 125.79961 12.3 127.09961 14 127.09961 C 17.6 127.09961 21.1 126.00039 24 123.90039 C 26.9 126.00039 30.4 127.09961 34 127.09961 C 37.6 127.09961 41.1 126.00039 44 123.90039 C 46.9 126.00039 50.4 127.09961 54 127.09961 C 57.6 127.09961 61.1 126.00039 64 123.90039 C 66.9 126.00039 70.4 127.09961 74 127.09961 L 114 127.09961 L 114.5 127.09961 L 114.59961 127.09961 C 114.69961 127.09961 114.9 127 115 127 C 115.1 127 115.09922 127.00039 115.19922 126.90039 C 115.29922 126.90039 115.40039 126.80078 115.40039 126.80078 C 115.50039 126.80078 115.49961 126.69922 115.59961 126.69922 C 115.69961 126.69922 115.80078 126.59961 115.80078 126.59961 L 115.90039 126.5 C 116.00039 126.4 116.09961 126.40078 116.09961 126.30078 L 116.19922 126.19922 C 116.29922 126.09922 116.30039 126 116.40039 126 C 116.40039 126 116.5 125.90078 116.5 125.80078 C 116.6 125.70078 116.59922 125.59961 116.69922 125.59961 C 116.79922 125.49961 116.80039 125.29922 116.90039 125.19922 L 126.90039 95.199219 C 127.30039 93.399219 126.59961 91.799219 125.09961 91.199219 L 119 88.800781 L 119 59 C 119 54.6 115.4 51 111 51 L 105 51 L 105 36 C 105 31.6 101.4 28 97 28 L 87 28 L 87 4 C 87 2.3 85.7 1 84 1 L 64 1 z M 67 7 L 81 7 L 81 28 L 67 28 L 67 7 z M 51 34 L 97 34 C 98.1 34 99 34.9 99 36 L 99 51 L 49 51 L 49 36 C 49 34.9 49.9 34 51 34 z M 53.900391 91.074219 C 53.125391 91.074219 52.350781 91.350391 51.800781 91.900391 L 51.400391 92.300781 C 51.300391 92.500781 51.199609 92.600781 51.099609 92.800781 C 50.999609 93.000781 51.000391 93.200391 50.900391 93.400391 C 50.900391 93.600391 50.800781 93.8 50.800781 94 C 50.800781 94.8 51.099219 95.599609 51.699219 96.099609 C 52.299219 96.699609 53.000781 97 53.800781 97 C 54.600781 97 55.599609 96.699609 56.099609 96.099609 C 56.699609 95.499609 57 94.8 57 94 C 57 93.8 57.000391 93.600391 56.900391 93.400391 C 56.900391 93.200391 56.799219 93.000781 56.699219 92.800781 C 56.599219 92.600781 56.500391 92.500781 56.400391 92.300781 C 56.300391 92.100781 56.2 92.000391 56 91.900391 C 55.45 91.350391 54.675391 91.074219 53.900391 91.074219 z M 4 116.82422 C 3.8 116.82422 3.6003906 116.85039 3.4003906 116.90039 C 3.2003906 116.90039 3.0007812 116.99961 2.8007812 117.09961 C 2.6007812 117.19961 2.5007813 117.30039 2.3007812 117.40039 C 2.1007812 117.50039 2.0007812 117.60078 1.8007812 117.80078 C 1.2007812 118.40078 0.90039063 119.10039 0.90039062 119.90039 C 0.90039062 120.10039 0.9 120.3 1 120.5 C 1.1 120.6 1.0992188 120.8 1.1992188 121 C 1.2992188 121.2 1.4 121.4 1.5 121.5 C 1.6 121.7 1.7003906 121.8 1.9003906 122 C 2.0003906 122.1 2.2003906 122.30039 2.4003906 122.40039 C 2.6003906 122.50039 2.7003906 122.59922 2.9003906 122.69922 C 3.1003906 122.79922 3.3 122.80039 3.5 122.90039 C 3.7 122.90039 3.8996094 123 4.0996094 123 C 4.2996094 123 4.4992188 123.00039 4.6992188 122.90039 C 4.8992188 122.90039 5.1007813 122.79922 5.3007812 122.69922 C 5.5007813 122.59922 5.7007812 122.50039 5.8007812 122.40039 C 6.0007813 122.30039 6.1007813 122.2 6.3007812 122 C 6.4007812 121.9 6.5992188 121.7 6.6992188 121.5 C 6.7992187 121.3 6.9 121.2 7 121 C 7.1 120.8 7.0992187 120.60039 7.1992188 120.40039 C 7.1992188 120.20039 7.3007812 120.00078 7.3007812 119.80078 C 7.3007812 119.60078 7.2992187 119.39922 7.1992188 119.19922 C 7.1992188 118.99922 7.1 118.79961 7 118.59961 C 6.9 118.39961 6.7992187 118.19961 6.6992188 118.09961 C 6.5992188 117.89961 6.5007812 117.79961 6.3007812 117.59961 C 6.2007813 117.49961 6.0007813 117.29922 5.8007812 117.19922 C 5.6007812 117.09922 5.5007813 117.00039 5.3007812 116.90039 C 5.0007813 117.00039 4.7996094 117.00039 4.5996094 116.90039 C 4.3996094 116.85039 4.2 116.82422 4 116.82422 z"/></svg>