<svg width="120" height="30" viewBox="0 0 120 30" fill="none" xmlns="http://www.w3.org/2000/svg">
    <path
        d="M 52.3 9.4 C 52.2 8.3 51.7 7.4 50.8 6.8 C 49.9 6.2 48.8 5.9 47.4 5.9 C 46.4 5.9 45.6 6 44.9 6.3 C 44.2 6.6 43.6 7 43.3 7.5 C 42.9 8 42.7 8.6 42.7 9.3 C 42.7 9.8 42.8 10.3 43.1 10.7 C 43.3 11.1 43.7 11.4 44.1 11.7 C 44.5 11.9 45 12.2 45.5 12.4 C 46 12.5 46.6 12.7 47.1 12.8 L 49.5 13.4 C 50.5 13.7 51.5 14 52.4 14.4 C 53.3 14.8 54.1 15.2 54.8 15.8 C 55.5 16.4 56.1 17.1 56.5 18 C 56.9 18.8 57.2 19.8 57.2 20.9 C 57.2 22.4 56.8 23.8 56 24.9 C 55.2 26.1 54.1 27 52.6 27.6 C 51.2 28.3 49.4 28.6 47.3 28.6 C 45.3 28.6 43.5 28.3 42.1 27.7 C 40.6 27 39.4 26.1 38.6 24.9 C 37.8 23.7 37.3 22.3 37.2 20.5 H 41.9 C 41.9 21.4 42.2 22.2 42.7 22.8 C 43.2 23.4 43.8 23.8 44.6 24.1 C 45.4 24.4 46.3 24.6 47.3 24.6 C 48.3 24.6 49.2 24.4 50 24.1 C 50.7 23.8 51.3 23.4 51.8 22.8 C 52.2 22.3 52.4 21.6 52.5 20.9 C 52.4 20.2 52.2 19.6 51.9 19.2 C 51.5 18.8 50.9 18.4 50.2 18.1 C 49.5 17.8 48.7 17.5 47.8 17.3 L 44.8 16.5 C 42.7 16 41 15.1 39.8 14 C 38.5 12.9 37.9 11.4 37.9 9.6 C 37.9 8 38.3 6.7 39.2 5.5 C 40 4.4 41.1 3.5 42.6 2.9 C 44 2.2 45.6 1.9 47.5 1.9 C 49.3 1.9 50.9 2.2 52.3 2.9 C 53.7 3.5 54.8 4.4 55.6 5.5 C 56.4 6.6 56.8 7.9 56.8 9.4 H 52.3 Z"
        fill="white" />
    <path
        d="M 69.6 28.6 C 67.7 28.6 66.1 28.2 64.7 27.3 C 63.3 26.5 62.2 25.3 61.4 23.8 C 60.7 22.3 60.3 20.6 60.3 18.5 C 60.3 16.5 60.7 14.8 61.4 13.3 C 62.2 11.8 63.3 10.6 64.7 9.7 C 66.1 8.9 67.7 8.5 69.6 8.5 C 71.5 8.5 73.2 8.9 74.6 9.7 C 76 10.6 77 11.8 77.8 13.3 C 78.6 14.8 79 16.5 79 18.5 C 79 20.6 78.6 22.3 77.8 23.8 C 77 25.3 76 26.5 74.6 27.3 C 73.2 28.2 71.5 28.6 69.6 28.6 Z M 69.7 24.9 C 70.7 24.9 71.5 24.6 72.2 24.1 C 72.9 23.5 73.4 22.7 73.8 21.7 C 74.1 20.8 74.3 19.7 74.3 18.5 C 74.3 17.3 74.1 16.3 73.8 15.3 C 73.4 14.3 72.9 13.6 72.2 13 C 71.5 12.4 70.7 12.1 69.7 12.1 C 68.6 12.1 67.7 12.4 67 13 C 66.3 13.6 65.8 14.3 65.5 15.3 C 65.1 16.3 65 17.3 65 18.5 C 65 19.7 65.1 20.8 65.5 21.7 C 65.8 22.7 66.3 23.5 67 24.1 C 67.7 24.6 68.6 24.9 69.7 24.9 Z"
        fill="white" />
    <path d="M 87.4 2.3 V 28.2 H 82.8 V 2.3 H 87.4 Z" fill="white" />
    <path
        d="M 92.1 28.2 V 8.7 H 96.7 V 28.2 H 92.1 Z M 94.4 6 C 93.7 6 93.1 5.7 92.6 5.3 C 92.1 4.8 91.8 4.2 91.8 3.5 C 91.8 2.8 92.1 2.2 92.6 1.7 C 93.1 1.2 93.7 1 94.4 1 C 95.2 1 95.8 1.2 96.3 1.7 C 96.8 2.2 97.1 2.8 97.1 3.5 C 97.1 4.2 96.8 4.8 96.3 5.3 C 95.8 5.7 95.2 6 94.4 6 Z"
        fill="white" />
    <path
        d="M 108.7 28.5 C 107.1 28.5 105.8 28.1 104.6 27.4 C 103.4 26.6 102.4 25.4 101.7 23.9 C 101 22.4 100.6 20.6 100.6 18.5 C 100.6 16.3 101 14.5 101.7 13 C 102.4 11.5 103.4 10.4 104.6 9.6 C 105.8 8.9 107.2 8.5 108.7 8.5 C 109.8 8.5 110.8 8.7 111.5 9.1 C 112.2 9.4 112.8 9.9 113.2 10.4 C 113.7 11 114 11.5 114.2 12 H 114.4 V 2.3 H 119 V 28.2 H 114.5 V 25.1 H 114.2 C 114 25.6 113.7 26.1 113.2 26.6 C 112.8 27.2 112.2 27.6 111.4 28 C 110.7 28.4 109.8 28.5 108.7 28.5 Z M 109.9 24.8 C 110.9 24.8 111.7 24.5 112.4 24 C 113.1 23.5 113.6 22.7 114 21.8 C 114.3 20.8 114.5 19.7 114.5 18.5 C 114.5 17.2 114.3 16.1 114 15.2 C 113.6 14.3 113.1 13.5 112.4 13 C 111.8 12.5 110.9 12.2 109.9 12.2 C 108.9 12.2 108.1 12.5 107.4 13 C 106.7 13.6 106.2 14.3 105.8 15.3 C 105.5 16.2 105.3 17.3 105.3 18.5 C 105.3 19.7 105.5 20.8 105.8 21.7 C 106.2 22.7 106.7 23.4 107.4 24 C 108.1 24.5 108.9 24.8 109.9 24.8 Z"
        fill="white" />
    <path
        d="M 14.1 0 H 9.7 C 6.6 0 3.8 1.9 2.7 4.8 C 1.8 7.1 0.8 9.6 0.4 10.8 C -1.7 19 5.6 21.5 7.4 21.8 C 10.8 22.6 13.5 20.6 14.5 19.2 C 14.6 19 14.5 18.8 14.2 18.8 C 9.1 20 7.8 15.6 8.6 13.8 L 14.1 0 Z"
        fill="#006bff" />
    <path
        d="M 11.1 30 L 15.5 30 C 18.6 30 21.4 28.1 22.5 25.2 C 23.5 22.9 24.4 20.4 24.9 19.2 C 26.9 11 19.7 8.5 17.9 8.2 C 14.4 7.4 11.8 9.4 10.7 10.8 C 10.6 11 10.8 11.2 11 11.2 C 16.1 10 17.4 14.4 16.7 16.2 L 11.1 30 Z"
        fill="#57ebb9" />
</svg>