<?xml version="1.0" encoding="UTF-8" standalone="no" ?>
<!DOCTYPE svg PUBLIC "-//W3C//DTD SVG 1.1//EN" "http://www.w3.org/Graphics/SVG/1.1/DTD/svg11.dtd">
<svg xmlns="http://www.w3.org/2000/svg" xmlns:xlink="http://www.w3.org/1999/xlink" version="1.1" width="100" height="30" viewBox="0 0 700 950" xml:space="preserve">
<desc>Created with Fabric.js 5.2.4</desc>
<defs>
</defs>
<rect x="0" y="0" width="100%" height="100%" fill="transparent"></rect>
<g transform="matrix(1 0 0 1 540 540)" id="cec5c0a5-1419-4b05-ad7c-e885341b74cb"  >
<rect style="stroke: none; stroke-width: 1; stroke-dasharray: none; stroke-linecap: butt; stroke-dashoffset: 0; stroke-linejoin: miter; stroke-miterlimit: 4; fill: rgb(255,255,255); fill-rule: nonzero; opacity: 1; visibility: hidden;" vector-effect="non-scaling-stroke"  x="-540" y="-540" rx="0" ry="0" width="1080" height="1080" />
</g>
<g transform="matrix(1 0 0 1 540 540)" id="266b749c-ea58-4e0e-b7c9-7a1f1fe5d543"  >
</g>
<g transform="matrix(14.03 0 0 14.03 540 500.07)" id="360bb74f-e7c8-4064-b7d8-f0584e62c53f"  >
<path style="stroke: rgb(0,0,0); stroke-width: 0; stroke-dasharray: none; stroke-linecap: butt; stroke-dashoffset: 0; stroke-linejoin: miter; stroke-miterlimit: 4; fill: rgb(122,66,224); fill-rule: nonzero; opacity: 1;" vector-effect="non-scaling-stroke"  transform=" translate(-50, -50)" d="M 42.653 45.007 L 30.876 45.007 C 29.645 45.007 28.466 45.263 27.443 45.672 C 26.318 46.134 25.344 46.799 24.525000000000002 47.669 L 24.472 47.669 C 23.654 48.489 22.987000000000002 49.461 22.528000000000002 50.587999999999994 C 22.119000000000003 51.611 21.861 52.791 21.861 54.019999999999996 C 21.861 55.248 22.119 56.373999999999995 22.528000000000002 57.449 C 22.986 58.525 23.653000000000002 59.550999999999995 24.525000000000002 60.369 C 25.344 61.187 26.317000000000004 61.854 27.443 62.314 C 28.466 62.775 29.645000000000003 63.031 30.876 63.031 L 69.124 63.031 C 70.35199999999999 63.031 71.53 62.775 72.553 62.314 C 73.682 61.854 74.65299999999999 61.187 75.524 60.369 C 76.342 59.551 77.009 58.525 77.472 57.449 C 77.92999999999999 56.375 78.13499999999999 55.248 78.13499999999999 54.019999999999996 C 78.13499999999999 52.791 77.92999999999999 51.611 77.472 50.587999999999994 C 77.06299999999999 49.614 76.497 48.69299999999999 75.83099999999999 47.92399999999999 L 75.52299999999998 47.66899999999999 C 74.65199999999999 46.79899999999999 73.68099999999998 46.13399999999999 72.55199999999998 45.67199999999999 C 71.52999999999997 45.21199999999999 70.35099999999998 45.00699999999999 69.12299999999998 45.00699999999999 L 62.46599999999998 44.95599999999999 L 61.23699999999998 44.95599999999999 L 61.23699999999998 35.58499999999999 L 69.12299999999998 35.58499999999999 C 71.63199999999998 35.58499999999999 74.03699999999998 36.09699999999999 76.18899999999998 37.01999999999999 C 78.43999999999998 37.93999999999999 80.44099999999997 39.32399999999999 82.12699999999998 41.01399999999999 L 83.25599999999999 42.13899999999999 L 83.20299999999999 42.13899999999999 C 84.43399999999998 43.62399999999999 85.40499999999999 45.21199999999999 86.17399999999999 47.00399999999999 C 87.04599999999999 49.15399999999999 87.55699999999999 51.50899999999999 87.55699999999999 54.020999999999994 C 87.55699999999999 56.477999999999994 87.04599999999999 58.88399999999999 86.17399999999999 61.035 C 85.25299999999999 63.288999999999994 83.86999999999999 65.33699999999999 82.181 67.02499999999999 L 82.127 67.02499999999999 C 80.441 68.71499999999999 78.44 70.09799999999998 76.189 71.02099999999999 C 74.03699999999999 71.942 71.684 72.40199999999999 69.225 72.40199999999999 L 30.876 72.40199999999999 C 28.364 72.40199999999999 26.011000000000003 71.942 23.859 71.02099999999999 C 21.608 70.09799999999998 19.558 68.71499999999999 17.868000000000002 67.02499999999999 C 16.178 65.33699999999999 14.795000000000002 63.288999999999994 13.825000000000003 61.03499999999999 C 12.953000000000003 58.88499999999999 12.442000000000004 56.47799999999999 12.442000000000004 54.02099999999999 C 12.442000000000004 51.508999999999986 12.954000000000004 49.15499999999999 13.825000000000003 47.003999999999984 C 14.795000000000003 44.75099999999998 16.178000000000004 42.70299999999998 17.868000000000002 41.012999999999984 C 19.558 39.322999999999986 21.608000000000004 37.93999999999998 23.859 36.96799999999998 C 26.011000000000003 36.09599999999998 28.364 35.58499999999998 30.876 35.58499999999998 L 43.521 35.58499999999998 C 42.346000000000004 33.28099999999998 40.399 31.18199999999998 40.399 28.466999999999977 C 40.399 27.13699999999998 43.521 27.494999999999976 44.7 28.466999999999977 C 49.001000000000005 31.846999999999976 53.354 35.226999999999975 57.655 38.60699999999998 C 58.833 39.52799999999998 58.833 41.064999999999976 57.655 41.98499999999998 C 53.354 45.36499999999998 49.001000000000005 48.744999999999976 44.7 52.125999999999976 C 43.521 53.046999999999976 40.399 53.455999999999975 40.399 52.125999999999976 C 40.398 50.025 41.577 47.464 42.653 45.007 z" stroke-linecap="round" />
</g>
</svg>